<?xml version="1.0" encoding="utf-8"?>
<!-- Generator: Adobe Illustrator 23.0.2, SVG Export Plug-In . SVG Version: 6.00 Build 0)  -->
<svg version="1.1" id="Layer_1" xmlns="http://www.w3.org/2000/svg" xmlns:xlink="http://www.w3.org/1999/xlink" x="0px" y="0px"
	 viewBox="0 0 251.2886 278.806" enable-background="new 0 0 251.2886 278.806" xml:space="preserve">
<g>
	<path d="M27.5057,64.1232c0,12.4267,10.0743,22.5,22.5,22.5c12.4279,0,22.5-10.0733,22.5-22.5c0-12.4268-10.0721-22.5-22.5-22.5
		C37.58,41.6232,27.5057,51.6964,27.5057,64.1232z M50.0057,81.2229c-5.9314,0-11.1265-3.1567-14.0352-7.8682h28.0703
		C61.1322,78.0662,55.9371,81.2229,50.0057,81.2229z"/>
	<path d="M123.2839,115.2002h0.0816l-3.2357-22.8468H69.9574c-0.2094-0.017-0.4195-0.032-0.6333-0.032H30.6893
		c-0.1665,0-0.3293,0.0145-0.4932,0.0249c-2.8171,0.0679-8.2946,0.9771-13.8997,6.2444
		C3.4039,110.704-1.8803,138.2675,0.5914,180.5155c0.249,4.252,3.7744,7.5342,7.9785,7.5332c0.1572,0,0.3164-0.0039,0.4746-0.0137
		c4.4111-0.2578,7.7773-4.043,7.5195-8.4531c-2.0559-35.1407,1.9263-53.8718,6.3968-63.1688v33.0899v18.9395v98
		c0,6.8301,5.5371,12.3633,12.3633,12.3633c6.8281,0,12.3652-5.5331,12.3652-12.3633V176.171h4.6348v90.2715
		c0,6.8301,5.5371,12.3633,12.3633,12.3633c6.8281,0,12.3652-5.5331,12.3652-12.3633v-98v-18.9395v-41.1497h23.3695
		c-7.6224,14.678-10.4993,38.8522-8.5505,72.1631c0.249,4.252,3.7744,7.5342,7.9785,7.5332c0.1572,0,0.3164-0.0039,0.4746-0.0137
		c4.4111-0.2578,7.7773-4.043,7.5195-8.4531c-2.0558-35.1385,1.926-53.8696,6.3965-63.1672v33.088v9.4792L123.2839,115.2002z
		 M60.5657,112.4241H72.899v3H60.5657V112.4241z M46.205,100.505h3.8007h3.799l1.9004,7.5l-0.2888,0.4559
		c-1.566,1.3057-3.4844,1.9604-5.4125,1.9622c-1.9278-0.0018-3.8428-0.6549-5.4076-1.9578l-0.2916-0.4603L46.205,100.505z
		 M50.0057,165.005l-9.5-12l5.4716-40.3214c1.2974,0.4862,2.662,0.7402,4.0266,0.7394h0.0019h0.0059
		c1.3631,0,2.7254-0.2543,4.0208-0.7404l5.4733,40.3224L50.0057,165.005z"/>
	<polygon points="128.0783,115.2002 141.0123,115.2002 154.4942,115.2002 157.7344,92.3221 154.264,92.3221 156.0378,85.417 
		143.4634,89.5322 143.4634,98 139.4634,98 139.4634,89.6472 126.5378,85.417 128.3115,92.3221 124.8381,92.3221 	"/>
	<path d="M143.6041,266.4432c0,6.83,5.5371,12.3628,12.3652,12.3628c6.8262,0,12.3633-5.5328,12.3633-12.3628v-56.8005
		c-4.6493,1.8436-14.4368,5.2268-24.7285,5.7391V266.4432z"/>
	<path d="M114.2408,266.4432c0,6.83,5.5371,12.3628,12.3653,12.3628c6.8261,0,12.3632-5.5328,12.3632-12.3628v-51.0387
		c-10.0997-0.4006-19.797-3.6313-24.7285-5.5463V266.4432z"/>
	<path d="M227.9391,68.2528c-2.8896-2.226-6.9003-2.1903-9.7441,0h-22.4064v14.4216c-13.1013,5.5173-27.3423,8.7434-33.3207,9.5013
		l-3.4511,24.3605l9.3159,45.1035v-12.136v-42.0822c7.0535-1.2336,17.1572-3.713,27.456-7.5272v43.3585h55.5v-75H227.9391z
		 M248.2886,140.2528h-49.5v-69h49.5V140.2528z"/>
	<rect x="207.5381" y="77.6277" width="32" height="2"/>
	<rect x="207.5381" y="131.8777" width="32" height="2"/>
	<path d="M121.2506,53.445c-1.5722,3.0712-2.4648,6.5477-2.4648,10.2347c0,12.4277,10.0742,22.5,22.5,22.5
		c12.4277,0,22.5-10.0723,22.5-22.5c0-3.6873-0.8926-7.164-2.4648-10.2353c-3.3434-1.1503-12.4169-4.0089-20.0332-4.0089
		C133.6685,49.4355,124.5927,52.295,121.2506,53.445z M141.2866,81.7229c-5.9314,0-11.1265-3.1567-14.0352-7.8682h28.0703
		C152.413,78.5662,147.218,81.7229,141.2866,81.7229z"/>
	<path d="M170.9689,13.5071c-1.1514,1.176-3.4548,3.0303-7.3276,4.1599c1.0762-1.0762,3.2845-3.9457,4.8273-5.9983
		c-4.4957-3.1992-8.0688-5.5484-11.1187-7.2626c-0.9456,1.433-2.5839,3.3366-5.3337,5.0684
		c0.6739-1.2122,1.8427-4.115,2.7408-6.4348C149.7382,0.5872,146.0389,0,141.2878,0c-4.7518,0-8.4513,0.5871-13.4697,3.0391
		c0.8979,2.3199,2.0663,5.2231,2.7392,6.4354c-2.749-1.7319-4.3874-3.6357-5.3332-5.0687c-3.05,1.7142-6.6233,4.0635-11.1192,7.2628
		c1.5429,2.0526,3.7512,4.9221,4.8274,5.9984c-3.8729-1.1296-6.1762-2.9839-7.3276-4.1599
		c-4.6464,3.6685-5.7922,6.9387-5.1146,9.7386c1.2427,5.1354,8.591,8.689,11.6298,10.2084
		c2.4501,1.2255,2.8737,5.7221,2.6998,9.8456c-0.168,3.9826-0.8932,7.6173-0.8932,7.6173s0.1778-0.0673,0.5023-0.1837
		c2.3433-0.8411,12.4837-4.2977,20.8592-4.2977c8.3737,0,18.5137,3.4567,20.857,4.2977c0.3245,0.1165,0.5023,0.1837,0.5023,0.1837
		s-0.7252-3.6349-0.8931-7.6178c-0.1738-4.1234,0.2498-8.6196,2.6998-9.8451c3.0387-1.5194,10.3873-5.0729,11.6301-10.2083
		C176.7614,20.4459,175.6156,17.1756,170.9689,13.5071z"/>
	<path d="M215.243,111.5854c0,0,5.0343-3.8676,9.6171-5.249c4.5811-1.3814,10.9147-0.9409,10.9147-0.9409
		s-3.6272-6.7987-1.6617-8.6542c1.9675-1.8564,8.4086-7.7406-0.3967-10.7692c-8.8053-3.0285-11.5335-3.1741-15.5849-1.9529
		c-4.0532,1.2221-6.2445,2.8502-11.9085,10.2404c-5.6639,7.3911,2.9557,8.7343,5.6213,9.1939
		C214.5078,103.9139,215.243,111.5854,215.243,111.5854z"/>
	<path d="M216.2681,116.3672c0.8564-0.2177,1.4763,0.3221,1.8047,1.6148l0.0599,0.2357l1.7299-0.4396l-0.0854-0.336
		c-0.5591-2.2004-2.0082-3.191-3.9232-2.7044c-1.0415,0.2646-1.7877,0.8475-2.1038,1.6433
		c-0.3411,0.8377-0.3177,1.4933,0.1347,3.2738l0.7981,3.1408c0.4224,1.6622,0.7064,2.288,1.3014,2.8696
		c0.6917,0.6821,1.6934,0.8929,2.8188,0.6069c2.0153-0.5121,2.7488-2.0573,2.1299-4.4926l-0.0982-0.3866l-1.747,0.4439
		c0.1928,0.8271,0.2397,1.0834,0.2454,1.3859c0.0026,0.7859-0.3227,1.262-0.9613,1.4242c-0.504,0.1281-1.0129-0.0464-1.2918-0.4401
		c-0.2284-0.3353-0.3901-0.7596-0.6077-1.616l-0.9475-3.7288c-0.2305-0.9069-0.2653-1.2558-0.1406-1.6808
		C215.4792,116.7821,215.7975,116.4868,216.2681,116.3672z"/>
	<polygon points="227.4922,123.8854 229.2221,123.4458 226.3754,112.243 224.6455,112.6826 225.832,117.3517 223.3624,117.9792 
		222.176,113.3101 220.4461,113.7496 223.2928,124.9525 225.0227,124.5129 223.7678,119.5746 226.2374,118.947 	"/>
	<polygon points="233.4247,115.2974 230.9552,115.9249 230.2039,112.9684 233.5469,112.1189 233.1416,110.5236 228.0687,111.8127 
		230.9154,123.0155 235.9883,121.7265 235.5829,120.1312 232.2399,120.9807 231.3605,117.5202 233.8301,116.8926 	"/>
	<polygon points="237.3129,121.3899 239.0428,120.9503 237.7753,115.9622 240.2946,115.322 239.889,113.726 237.3697,114.3661 
		236.6014,111.3428 239.9943,110.4807 239.5889,108.8853 234.4662,110.187 	"/>
</g>
</svg>
